<svg width="24" height="24" viewBox="0 0 24 24" fill="none" xmlns="http://www.w3.org/2000/svg">
<path d="M17.6134 15.5159C19.0658 13.5339 19.7163 11.0766 19.4348 8.63563C19.1533 6.19462 17.9605 3.94991 16.095 2.3506C14.2295 0.751288 11.829 -0.0846881 9.37362 0.00992167C6.91825 0.104531 4.58915 1.12275 2.85227 2.86087C1.1154 4.59899 0.098846 6.92882 0.00599324 9.38426C-0.0868595 11.8397 0.750834 14.2396 2.35148 16.104C3.95213 17.9683 6.19769 19.1595 8.6389 19.4393C11.0801 19.7191 13.5369 19.0668 15.5179 17.6129H15.5164C15.5614 17.6729 15.6094 17.7299 15.6634 17.7854L21.4384 23.5604C21.7196 23.8419 22.1012 24.0001 22.4991 24.0002C22.897 24.0003 23.2787 23.8424 23.5601 23.5612C23.8416 23.2799 23.9998 22.8983 23.9999 22.5004C24.0001 22.1025 23.8421 21.7209 23.5609 21.4394L17.7859 15.6644C17.7322 15.6101 17.6746 15.56 17.6134 15.5144V15.5159ZM18.0004 9.74991C18.0004 10.8333 17.787 11.9061 17.3724 12.907C16.9578 13.908 16.3501 14.8175 15.584 15.5835C14.8179 16.3496 13.9084 16.9573 12.9075 17.3719C11.9066 17.7865 10.8338 17.9999 9.75037 17.9999C8.66696 17.9999 7.59417 17.7865 6.59323 17.3719C5.5923 16.9573 4.68282 16.3496 3.91674 15.5835C3.15066 14.8175 2.54297 13.908 2.12836 12.907C1.71376 11.9061 1.50037 10.8333 1.50037 9.74991C1.50037 7.56187 2.36956 5.46345 3.91674 3.91628C5.46391 2.3691 7.56233 1.49991 9.75037 1.49991C11.9384 1.49991 14.0368 2.3691 15.584 3.91628C17.1312 5.46345 18.0004 7.56187 18.0004 9.74991Z" fill="black" fill-opacity="0.92"/>
</svg>
