<svg width="38" height="37" viewBox="0 0 38 37" fill="none" xmlns="http://www.w3.org/2000/svg">
<path d="M19.0001 36.9107C16.5104 36.9107 14.0927 36.4242 11.8192 35.4622C9.62129 34.5326 7.65041 33.1995 5.95696 31.506C4.26352 29.8126 2.93038 27.8417 2.00078 25.6438C1.03876 23.3703 0.552345 20.9526 0.552345 18.4629C0.552345 17.7459 1.13244 17.1658 1.84945 17.1658C2.56647 17.1658 3.14656 17.7459 3.14656 18.4629C3.14656 20.6031 3.56452 22.6785 4.39323 24.635C5.19311 26.523 6.33529 28.22 7.79093 29.6757C9.24657 31.1313 10.9436 32.2771 12.8316 33.0734C14.7845 33.8985 16.8599 34.3164 19.0001 34.3164C21.1403 34.3164 23.2157 33.8985 25.1722 33.0698C27.0602 32.2699 28.7572 31.1277 30.2129 29.6721C31.6685 28.2164 32.8143 26.5194 33.6106 24.6314C34.4357 22.6785 34.8537 20.6031 34.8537 18.4629C34.8537 16.3227 34.4357 14.2473 33.607 12.2908C32.8098 10.4073 31.6561 8.69571 30.2093 7.25012C28.7653 5.80138 27.0533 4.64738 25.1686 3.85242C23.2157 3.02731 21.1403 2.60935 19.0001 2.60935C18.2831 2.60935 17.703 2.02926 17.703 1.31224C17.703 0.595232 18.2831 0.0151367 19.0001 0.0151367C21.4898 0.0151367 23.9075 0.501552 26.181 1.46357C28.3789 2.39317 30.3498 3.72631 32.0433 5.41975C33.7367 7.1132 35.0662 9.08769 35.9958 11.282C36.9579 13.5555 37.4443 15.9732 37.4443 18.4629C37.4443 20.9526 36.9579 23.3703 35.9958 25.6438C35.0698 27.8417 33.7367 29.8126 32.0433 31.506C30.3498 33.1995 28.3753 34.529 26.181 35.4586C23.9075 36.4242 21.4898 36.9107 19.0001 36.9107Z" fill="black"/>
</svg>
