<svg width="16" height="13" viewBox="0 0 16 13" fill="none" xmlns="http://www.w3.org/2000/svg">
<path d="M8.50063 0.562304C8.50063 1.00302 8.50063 1.44374 8.50063 1.89781C8.76919 1.88232 8.76919 1.88232 9.04318 1.86651C10.6997 1.87529 12.1844 2.41893 13.5088 3.40026C13.6216 3.51841 13.7343 3.63655 13.8505 3.75827C14.3094 4.19425 14.7293 4.18759 15.3451 4.23496C15.5329 4.86098 15.5329 4.86098 15.3451 5.23659C10.4972 5.23659 5.64931 5.23659 0.654501 5.23659C0.487562 4.56884 0.487562 4.56884 0.654501 4.23496C0.823214 4.22463 0.991926 4.2143 1.16575 4.20366C1.76284 4.13799 2.03643 3.92337 2.46996 3.51503C3.68204 2.37535 5.27347 1.88276 6.92514 1.87695C7.11451 1.88383 7.30388 1.89072 7.49899 1.89781C7.49899 1.4571 7.49899 1.01638 7.49899 0.562304C7.91483 0.354388 8.06839 0.432633 8.50063 0.562304ZM3.6594 4.23496C6.52407 4.23496 9.38874 4.23496 12.3402 4.23496C11.1618 3.05655 9.58549 2.99467 7.99981 2.98292C6.41413 2.99467 4.8378 3.05655 3.6594 4.23496Z" fill="black"/>
<path d="M1.99004 5.90434C2.32058 5.90434 2.65111 5.90434 2.99167 5.90434C2.9941 6.04663 2.99654 6.18891 2.99905 6.33551C3.00927 6.86603 3.02166 7.39645 3.03548 7.92689C3.04102 8.15597 3.0457 8.38508 3.0495 8.6142C3.05513 8.94453 3.06412 9.27479 3.07318 9.60504C3.07755 9.80349 3.08193 10.0019 3.08643 10.2064C3.16491 10.7927 3.29857 11.1148 3.65943 11.5803C4.12882 11.7367 4.42254 11.7699 4.90878 11.7741C5.13529 11.7765 5.13529 11.7765 5.36639 11.779C5.61054 11.78 5.61054 11.78 5.85963 11.7811C6.02739 11.7821 6.19515 11.783 6.36799 11.784C6.72302 11.7856 7.07804 11.7867 7.43307 11.7873C7.9757 11.7889 8.51821 11.7941 9.06081 11.7994C9.40577 11.8005 9.75074 11.8013 10.0957 11.802C10.2578 11.804 10.4199 11.8061 10.5869 11.8082C11.7163 11.809 11.7163 11.809 12.6741 11.2464C12.8614 10.6846 12.8758 10.2296 12.8939 9.63764C12.9009 9.42083 12.9079 9.20403 12.9151 8.98065C12.9217 8.75165 12.9284 8.52265 12.935 8.29365C12.9422 8.0627 12.9495 7.83174 12.9568 7.60079C12.9745 7.03533 12.9916 6.46985 13.008 5.90434C13.3385 5.90434 13.6691 5.90434 14.0096 5.90434C14.0096 6.1247 14.0096 6.34506 14.0096 6.5721C14.4504 6.5721 14.8911 6.5721 15.3451 6.5721C15.5329 7.19812 15.5329 7.19812 15.3451 7.57373C14.9044 7.57373 14.4637 7.57373 14.0096 7.57373C14.0149 7.74792 14.0149 7.74792 14.0202 7.92562C14.0342 8.45519 14.0428 8.98472 14.0514 9.51439C14.057 9.69709 14.0626 9.8798 14.0683 10.068C14.0811 11.1205 14.0839 11.8009 13.3419 12.5819C12.8062 12.9186 12.3833 12.9593 11.756 12.9643C11.5722 12.9664 11.3883 12.9685 11.1988 12.9707C11.0009 12.9711 10.803 12.9715 10.5991 12.9719C10.3949 12.973 10.1908 12.9741 9.98039 12.9752C9.54847 12.9769 9.11655 12.9777 8.68463 12.9776C8.02438 12.9784 7.36432 12.9844 6.7041 12.9908C6.28437 12.9917 5.86463 12.9924 5.44489 12.9927C5.24766 12.9951 5.05044 12.9975 4.84724 13C3.79835 12.9942 3.10157 12.9889 2.32391 12.248C1.94852 11.7253 1.9507 11.2717 1.95743 10.6386C1.95851 10.46 1.95958 10.2814 1.96069 10.0974C1.96349 9.91188 1.96629 9.72638 1.96917 9.53526C1.97068 9.34718 1.97218 9.1591 1.97373 8.96532C1.97767 8.50142 1.98316 8.03759 1.99004 7.57373C1.54932 7.57373 1.1086 7.57373 0.654527 7.57373C0.46672 6.94771 0.46672 6.94771 0.654527 6.5721C1.09525 6.5721 1.53596 6.5721 1.99004 6.5721C1.99004 6.35174 1.99004 6.13138 1.99004 5.90434Z" fill="black"/>
<path d="M8 6.23822V10.2448" stroke="black" stroke-width="1.2"/>
<path d="M5.99658 8.24149H10.0031" stroke="black" stroke-width="1.2"/>
</svg>
